<svg width="120" height="40" viewBox="0 0 120 40" fill="none" xmlns="http://www.w3.org/2000/svg">
  <!-- PwC Logo Recreation -->
  <g>
    <!-- Letter "p" -->
    <path d="M8 32V8h8c4.4 0 8 3.6 8 8s-3.6 8-8 8h-8z M8 16h8c2.2 0 4-1.8 4-4s-1.8-4-4-4h-8v8z" fill="#E85604"/>
    
    <!-- Letter "w" (italic) -->
    <path d="M32 32L28 8h4l2.4 16L37 8h3l2.6 16L45 8h4l-4 24h-4l-2.5-15L36 32h-4z" fill="#E85604" transform="skew(-8, 0)"/>
    
    <!-- Letter "c" -->
    <path d="M60 20c0-6.6 5.4-12 12-12s12 5.4 12 12-5.4 12-12 12-12-5.4-12-12z M72 12c-4.4 0-8 3.6-8 8s3.6 8 8 8c2.8 0 5.2-1.4 6.6-3.6l3.4 2c-2 3.2-5.6 5.6-10 5.6-6.6 0-12-5.4-12-12s5.4-12 12-12c4.4 0 8 2.4 10 5.6l-3.4 2c-1.4-2.2-3.8-3.6-6.6-3.6z" fill="#E85604"/>
    
    <!-- Orange accent mark -->
    <path d="M110 15l6 6-6 6-2-2 4-4-4-4 2-2z" fill="#E85604"/>
  </g>
</svg>